<svg width="300" height="300" viewBox="0 0 300 300" fill="none" xmlns="http://www.w3.org/2000/svg">
<mask id="path-1-inside-1_16_374" fill="white">
<path fill-rule="evenodd" clip-rule="evenodd" d="M149.406 158.76C190.761 158.76 224.286 125.235 224.286 83.88C224.286 42.5249 190.761 9 149.406 9C108.051 9 74.5258 42.5249 74.5258 83.88C74.5258 125.235 108.051 158.76 149.406 158.76ZM149.406 143.309C182.227 143.309 208.834 116.702 208.834 83.8802C208.834 51.0587 182.227 24.4517 149.406 24.4517C116.584 24.4517 89.9772 51.0587 89.9772 83.8802C89.9772 116.702 116.584 143.309 149.406 143.309Z"/>
</mask>
<path fill-rule="evenodd" clip-rule="evenodd" d="M149.406 158.76C190.761 158.76 224.286 125.235 224.286 83.88C224.286 42.5249 190.761 9 149.406 9C108.051 9 74.5258 42.5249 74.5258 83.88C74.5258 125.235 108.051 158.76 149.406 158.76ZM149.406 143.309C182.227 143.309 208.834 116.702 208.834 83.8802C208.834 51.0587 182.227 24.4517 149.406 24.4517C116.584 24.4517 89.9772 51.0587 89.9772 83.8802C89.9772 116.702 116.584 143.309 149.406 143.309Z" fill="black"/>
<path d="M223.286 83.88C223.286 124.683 190.209 157.76 149.406 157.76V159.76C191.313 159.76 225.286 125.787 225.286 83.88H223.286ZM149.406 10C190.209 10 223.286 43.0772 223.286 83.88H225.286C225.286 41.9726 191.313 8 149.406 8V10ZM75.5258 83.88C75.5258 43.0772 108.603 10 149.406 10V8C107.498 8 73.5258 41.9726 73.5258 83.88H75.5258ZM149.406 157.76C108.603 157.76 75.5258 124.683 75.5258 83.88H73.5258C73.5258 125.787 107.498 159.76 149.406 159.76V157.76ZM207.834 83.8802C207.834 116.149 181.675 142.309 149.406 142.309V144.309C182.78 144.309 209.834 117.254 209.834 83.8802H207.834ZM149.406 25.4517C181.675 25.4517 207.834 51.611 207.834 83.8802H209.834C209.834 50.5065 182.78 23.4517 149.406 23.4517V25.4517ZM90.9772 83.8802C90.9772 51.611 117.137 25.4517 149.406 25.4517V23.4517C116.032 23.4517 88.9772 50.5065 88.9772 83.8802H90.9772ZM149.406 142.309C117.137 142.309 90.9772 116.149 90.9772 83.8802H88.9772C88.9772 117.254 116.032 144.309 149.406 144.309V142.309Z" fill="black" mask="url(#path-1-inside-1_16_374)"/>
<rect x="46" y="83.8804" width="208" height="208" rx="10" fill="black"/>
<path d="M148.715 235.672C145.088 235.672 141.355 235.31 137.515 234.584C133.675 233.902 130.112 233.07 126.827 232.088C123.542 231.064 120.939 230.083 119.019 229.144L120.939 211.736C123.926 213.187 127.04 214.531 130.283 215.768C133.526 217.006 136.854 218.008 140.267 218.776C143.68 219.544 147.136 219.928 150.635 219.928C154.987 219.928 158.486 219.075 161.131 217.368C163.776 215.662 165.099 213.059 165.099 209.56C165.099 206.872 164.352 204.718 162.859 203.096C161.366 201.432 159.083 199.96 156.011 198.68C152.939 197.358 149.014 195.864 144.235 194.2C139.456 192.536 135.168 190.659 131.371 188.568C127.574 186.435 124.566 183.747 122.347 180.504C120.128 177.262 119.019 173.123 119.019 168.088C119.019 163.139 120.235 158.744 122.667 154.904C125.099 151.022 128.726 147.992 133.547 145.816C138.411 143.598 144.448 142.488 151.659 142.488C157.12 142.488 162.326 143.107 167.275 144.344C172.224 145.539 176.448 146.84 179.947 148.248L178.283 165.016C173.248 162.755 168.512 161.048 164.075 159.896C159.68 158.702 155.2 158.104 150.635 158.104C145.856 158.104 142.166 158.894 139.563 160.472C136.96 162.051 135.659 164.419 135.659 167.576C135.659 170.094 136.384 172.12 137.835 173.656C139.286 175.192 141.355 176.515 144.043 177.624C146.731 178.691 149.952 179.822 153.707 181.016C160.192 183.064 165.632 185.326 170.027 187.8C174.464 190.232 177.792 193.198 180.011 196.696C182.272 200.152 183.403 204.44 183.403 209.56C183.403 212.12 182.998 214.915 182.187 217.944C181.376 220.931 179.776 223.768 177.387 226.456C174.998 229.144 171.499 231.363 166.891 233.112C162.326 234.819 156.267 235.672 148.715 235.672Z" fill="white"/>
</svg>
